# xmcd
#
# Track frame offsets:
# 150
# 15385
# 28715
# 45770
# 60070
# 75100
# 95212
# 112757
# 127340
# 141160
# 153313
# 168630
# 182040
# 197070
#
# Disc length: 2834 seconds
#
#
# Revision: 1
# Processed by: cddbd v1.5PL3 Copyright (c) Steve Scherf et al.
# Submitted via: FreeRIP 2.60 
#
DISCID=a60b100e
DTITLE=Various Artist - Sounds of My Car - Sertanejo
DYEAR=1900
DGENRE=Country
TTITLE0=Rionegro e Solimões/Medo da Chuva
TTITLE1=Chitãozinho e Xororó/Rei do Gado
TTITLE2=Roberta Miranda/Majestade o Sabiá
TTITLE3=Teodoro e Sampaio/Se a Casa Cair
TTITLE4=Chrystian and Ralf/Telefone Mudo
TTITLE5=Marlon and Maicon/Por Te Amar Assim
TTITLE6=Sérgio and Tchelo/Te Busquei nas Avenidas
TTITLE7=Paula Hunter/Eu Quero Ser Feliz
TTITLE8=Tonico e Tinoco/Moreninha Linda
TTITLE9=Genildo e Ginaldo/Meu Xamego, Meu Xodó
TTITLE10=João Mineiro e Marciano/Viola Está Chorando
TTITLE11=Maurício e Mauri/Xonado Eu Tô
TTITLE12=Antonio Carlos e Renatto/Coisa Boa é Mulher
TTITLE13=Arleno Farias/Tocando em Frente
EXTD=
EXTT0=
EXTT1=
EXTT2=
EXTT3=
EXTT4=
EXTT5=
EXTT6=
EXTT7=
EXTT8=
EXTT9=
EXTT10=
EXTT11=
EXTT12=
EXTT13=
PLAYORDER=
